<?xml version="1.0" encoding="UTF-8" standalone="no"?>
<!DOCTYPE svg PUBLIC "-//W3C//DTD SVG 1.1//EN" "http://www.w3.org/Graphics/SVG/1.1/DTD/svg11.dtd">
<svg version="1.1" xmlns="http://www.w3.org/2000/svg" xmlns:xlink="http://www.w3.org/1999/xlink" preserveAspectRatio="xMidYMid meet" viewBox="391.2627737226276 71.18978102189777 203.99999999999994 204.00000000000006" width="300" height="300"><defs><path d="M574.35 72.19C584.24 72.19 592.26 80.21 592.26 90.1C592.26 126.52 592.26 217.86 592.26 254.28C592.26 264.17 584.24 272.19 574.35 272.19C537.94 272.19 446.59 272.19 410.17 272.19C400.28 272.19 392.26 264.17 392.26 254.28C392.26 217.86 392.26 126.52 392.26 90.1C392.26 80.21 400.28 72.19 410.17 72.19C446.59 72.19 537.94 72.19 574.35 72.19Z" id="dtbMRmT9m"></path><path d="M521.23 239.95C521.23 246.39 516.01 251.61 509.57 251.61C500.57 251.61 485.21 251.61 476.21 251.61C469.77 251.61 464.55 246.39 464.55 239.95C464.55 224.07 464.55 188.1 464.55 172.22C464.55 165.78 469.77 160.56 476.21 160.56C485.21 160.56 500.57 160.56 509.57 160.56C516.01 160.56 521.23 165.78 521.23 172.22C521.23 188.1 521.23 224.07 521.23 239.95Z" id="m8T4Syx1F"></path><path d="M460.94 165.38C457.55 159.5 450.04 157.49 444.17 160.88C439.96 163.31 437.96 164.47 433.74 166.9C427.87 170.29 425.86 177.8 429.25 183.68C437.61 198.16 456.56 230.98 464.92 245.46C468.31 251.34 475.82 253.35 481.7 249.96C485.91 247.53 487.91 246.37 492.12 243.94C497.99 240.55 500.01 233.04 496.62 227.17C488.25 212.68 469.31 179.86 460.94 165.38Z" id="a3OgqqGjzm"></path><path d="M519.6 245.46C516.2 251.34 508.69 253.35 502.82 249.96C498.61 247.53 496.61 246.37 492.4 243.94C486.52 240.55 484.51 233.04 487.9 227.17C496.26 212.68 515.21 179.86 523.57 165.38C526.97 159.5 534.48 157.49 540.35 160.88C544.56 163.31 546.56 164.47 550.77 166.9C556.65 170.29 558.66 177.8 555.27 183.68C546.91 198.16 527.96 230.98 519.6 245.46Z" id="adofMVDF4"></path><path d="M518.73 159.28L519.21 159.33L519.68 159.4L520.15 159.48L520.62 159.59L521.09 159.72L521.56 159.86L522.02 160.03L522.48 160.21L522.94 160.41L523.38 160.64L523.83 160.88L534.25 166.9L534.69 167.16L535.1 167.44L535.51 167.73L535.9 168.04L536.27 168.35L536.63 168.69L536.97 169.03L537.3 169.38L537.61 169.75L537.91 170.13L538.19 170.51L538.45 170.91L538.7 171.31L538.93 171.73L539.15 172.15L539.35 172.58L539.53 173.01L539.7 173.46L539.84 173.9L539.97 174.36L540.09 174.81L540.18 175.28L540.26 175.74L540.32 176.21L540.36 176.68L540.39 177.15L540.39 177.63L540.38 178.1L540.35 178.58L540.3 179.05L540.23 179.53L540.15 180L540.04 180.47L539.91 180.94L539.77 181.41L539.6 181.87L539.42 182.33L539.22 182.78L538.99 183.23L538.75 183.68L513.39 227.61L513.39 227.61L513.61 228.06L513.82 228.51L514 228.97L514.17 229.43L514.31 229.9L514.44 230.37L514.54 230.84L514.63 231.31L514.7 231.79L514.75 232.26L514.78 232.74L514.79 233.21L514.79 233.69L514.76 234.16L514.72 234.63L514.66 235.1L514.58 235.57L514.48 236.03L514.37 236.48L514.24 236.94L514.09 237.39L513.93 237.83L513.75 238.26L513.55 238.69L513.33 239.11L513.1 239.53L512.85 239.93L512.59 240.33L512.31 240.72L512.01 241.09L511.7 241.46L511.37 241.81L511.03 242.16L510.67 242.49L510.29 242.81L509.91 243.11L509.5 243.4L509.08 243.68L508.65 243.94L500.3 248.76L500.23 248.83L499.85 249.12L499.46 249.4L499.07 249.67L498.66 249.91L498.25 250.15L497.83 250.36L497.4 250.56L496.96 250.74L496.52 250.91L496.07 251.06L495.62 251.19L495.16 251.3L494.7 251.4L494.23 251.47L493.77 251.53L493.3 251.58L492.82 251.6L492.35 251.61L492.26 251.6L492.18 251.61L491.7 251.6L491.23 251.58L490.76 251.53L490.29 251.47L489.83 251.4L489.36 251.3L488.91 251.19L488.45 251.06L488.01 250.91L487.56 250.74L487.13 250.56L486.7 250.36L486.28 250.15L485.86 249.91L485.46 249.67L485.06 249.4L484.68 249.12L484.3 248.83L484.22 248.76L475.88 243.94L475.44 243.68L475.02 243.4L474.62 243.11L474.23 242.81L473.86 242.49L473.5 242.16L473.16 241.81L472.83 241.46L472.52 241.09L472.22 240.72L471.94 240.33L471.67 239.93L471.43 239.53L471.19 239.11L470.98 238.69L470.78 238.26L470.6 237.83L470.43 237.39L470.29 236.94L470.15 236.48L470.04 236.03L469.95 235.57L469.87 235.1L469.81 234.63L469.76 234.16L469.74 233.69L469.73 233.21L469.75 232.74L469.78 232.26L469.83 231.79L469.9 231.31L469.98 230.84L470.09 230.37L470.21 229.9L470.36 229.43L470.52 228.97L470.71 228.51L470.91 228.06L471.14 227.61L471.14 227.61L445.78 183.68L445.53 183.23L445.31 182.78L445.11 182.33L444.92 181.87L444.76 181.41L444.61 180.94L444.49 180.47L444.38 180L444.29 179.53L444.22 179.05L444.17 178.58L444.14 178.1L444.13 177.63L444.14 177.15L444.16 176.68L444.2 176.21L444.26 175.74L444.34 175.28L444.44 174.81L444.55 174.36L444.68 173.9L444.83 173.46L445 173.01L445.18 172.58L445.38 172.15L445.59 171.73L445.82 171.31L446.07 170.91L446.34 170.51L446.62 170.13L446.91 169.75L447.22 169.38L447.55 169.03L447.9 168.69L448.25 168.35L448.63 168.04L449.02 167.73L449.42 167.44L449.84 167.16L450.27 166.9L460.7 160.88L461.14 160.64L461.59 160.41L462.04 160.21L462.5 160.03L462.97 159.86L463.43 159.72L463.9 159.59L464.37 159.48L464.85 159.4L465.32 159.33L465.79 159.28L466.27 159.25L466.75 159.24L467.22 159.24L467.69 159.27L468.16 159.31L468.63 159.37L469.1 159.45L469.56 159.54L470.02 159.66L470.47 159.79L470.92 159.93L471.36 160.1L471.79 160.28L472.22 160.48L472.64 160.7L473.06 160.93L473.46 161.18L473.86 161.44L474.25 161.72L474.62 162.02L474.99 162.33L475.34 162.66L475.69 163L476.02 163.36L476.34 163.73L476.64 164.12L476.93 164.53L477.21 164.94L477.47 165.38L492.26 191L507.05 165.38L507.32 164.94L507.59 164.53L507.88 164.12L508.19 163.73L508.51 163.36L508.84 163L509.18 162.66L509.54 162.33L509.9 162.02L510.28 161.72L510.67 161.44L511.06 161.18L511.47 160.93L511.88 160.7L512.3 160.48L512.73 160.28L513.17 160.1L513.61 159.93L514.06 159.79L514.51 159.66L514.97 159.54L515.43 159.45L515.89 159.37L516.36 159.31L516.83 159.27L517.31 159.24L517.78 159.24L518.26 159.25L518.73 159.28Z" id="aBDhZi0Zt"></path><path d="M510.56 241.09C510.56 247.88 505.06 253.37 498.28 253.37C493.42 253.37 491.11 253.37 486.25 253.37C479.46 253.37 473.97 247.88 473.97 241.1C473.96 224.37 473.96 186.47 473.96 169.75C473.96 162.97 479.46 157.47 486.24 157.47C491.11 157.47 493.42 157.47 498.28 157.47C505.06 157.47 510.56 162.97 510.56 169.75C510.56 186.47 510.56 224.37 510.56 241.09Z" id="c3BYsLlg9W"></path><path d="M493.62 86.35L495 86.48L496.36 86.67L497.69 86.92L499 87.23L500.28 87.59L501.53 88.01L502.74 88.48L503.92 89L505.07 89.57L506.17 90.19L507.24 90.85L508.26 91.56L509.24 92.31L510.16 93.1L511.05 93.93L511.88 94.8L512.65 95.71L513.37 96.65L514.04 97.62L514.65 98.62L515.19 99.66L515.67 100.72L516.09 101.81L516.44 102.92L516.72 104.06L516.93 105.21L517.07 106.39L517.13 107.59L517.12 108.79L517.07 109.39L517.13 109.38L518.45 109.07L519.8 108.83L521.18 108.64L522.58 108.52L524 108.46L525.42 108.46L526.82 108.53L528.2 108.66L529.56 108.85L530.89 109.1L532.2 109.41L533.48 109.78L534.73 110.19L535.95 110.66L537.13 111.18L538.27 111.75L539.37 112.37L540.44 113.04L541.46 113.74L542.44 114.49L543.37 115.29L544.25 116.12L545.08 116.99L545.85 117.89L546.58 118.83L547.24 119.8L547.85 120.81L548.39 121.84L548.87 122.9L549.29 123.99L549.64 125.11L549.92 126.24L550.13 127.4L550.27 128.58L550.33 129.77L550.32 130.97L550.23 132.15L550.06 133.32L549.83 134.46L549.52 135.59L549.15 136.69L548.71 137.77L548.2 138.83L548.11 138.99L549.13 139.23L550.41 139.59L551.66 140.01L552.88 140.48L554.06 141L555.2 141.57L556.31 142.19L557.37 142.85L558.39 143.56L559.37 144.31L560.3 145.1L561.18 145.93L562.01 146.8L562.79 147.71L563.51 148.65L564.17 149.62L564.78 150.62L565.32 151.66L565.81 152.72L566.22 153.81L566.57 154.92L566.85 156.06L567.06 157.21L567.2 158.39L567.26 159.59L567.25 160.78L567.16 161.97L566.99 163.13L566.76 164.28L566.45 165.4L566.08 166.51L565.64 167.59L565.13 168.64L564.57 169.67L563.94 170.67L563.26 171.63L562.51 172.57L561.72 173.47L560.87 174.34L559.97 175.16L559.03 175.95L558.03 176.7L557 177.4L555.92 178.06L554.8 178.68L553.64 179.25L552.44 179.76L551.21 180.23L549.95 180.64L548.65 181L547.33 181.3L545.98 181.55L544.6 181.73L543.2 181.86L541.78 181.92L540.36 181.91L538.96 181.84L537.58 181.71L536.22 181.52L534.88 181.27L533.58 180.96L532.3 180.6L531.05 180.18L529.83 179.71L528.73 179.23L528.25 179.71L527.35 180.54L526.4 181.33L525.41 182.08L524.37 182.78L523.29 183.44L522.17 184.06L521.01 184.62L519.82 185.14L518.59 185.61L517.32 186.02L516.03 186.38L514.71 186.68L513.36 186.93L511.98 187.11L510.58 187.23L509.16 187.29L507.74 187.29L506.34 187.22L504.96 187.09L503.6 186.9L502.26 186.65L500.95 186.34L499.67 185.98L498.43 185.56L497.21 185.09L496.03 184.57L494.89 184L493.78 183.38L492.72 182.72L491.7 182.01L490.72 181.26L490.13 180.76L489.94 180.9L488.9 181.61L487.82 182.27L486.7 182.89L485.54 183.45L484.34 183.97L483.11 184.44L481.85 184.85L480.55 185.21L479.23 185.51L477.88 185.75L476.5 185.94L475.11 186.06L473.69 186.12L472.26 186.12L470.86 186.05L469.48 185.92L468.12 185.73L466.79 185.48L465.48 185.17L464.2 184.81L462.95 184.39L461.74 183.92L460.55 183.4L459.41 182.83L458.31 182.21L457.24 181.55L456.22 180.84L455.24 180.09L454.31 179.3L453.43 178.47L452.6 177.6L451.91 176.79L451.76 176.84L450.47 177.19L449.14 177.5L447.79 177.74L446.42 177.93L445.02 178.05L443.6 178.11L442.18 178.1L440.78 178.04L439.39 177.91L438.03 177.71L436.7 177.46L435.39 177.16L434.11 176.79L432.86 176.38L431.65 175.91L430.47 175.39L429.32 174.81L428.22 174.2L427.16 173.53L426.13 172.83L425.16 172.07L424.23 171.28L423.35 170.45L422.52 169.58L421.74 168.68L421.02 167.74L420.35 166.76L419.75 165.76L419.2 164.73L418.72 163.67L418.3 162.58L417.95 161.46L417.67 160.33L417.46 159.17L417.32 157.99L417.26 156.8L417.28 155.6L417.37 154.42L417.53 153.25L417.77 152.11L418.08 150.98L418.45 149.88L418.89 148.8L419.39 147.74L419.96 146.72L420.59 145.72L421.27 144.75L422.01 143.81L422.81 142.91L423.65 142.05L424.55 141.22L425.5 140.43L426.49 139.68L427.53 138.98L428.61 138.32L429.73 137.7L430.89 137.14L432.08 136.62L433.31 136.15L434.58 135.74L434.83 135.67L434.68 135.29L434.33 134.18L434.05 133.05L433.84 131.89L433.7 130.71L433.64 129.52L433.65 128.32L433.75 127.14L433.91 125.97L434.15 124.82L434.45 123.7L434.83 122.59L435.27 121.52L435.77 120.46L436.34 119.43L436.96 118.44L437.65 117.47L438.39 116.53L439.18 115.63L440.03 114.77L440.93 113.94L441.87 113.15L442.87 112.4L443.9 111.7L444.98 111.04L446.11 110.42L447.26 109.86L448.46 109.34L449.69 108.87L450.96 108.46L452.25 108.1L453.57 107.8L454.92 107.55L456.3 107.37L457.7 107.25L459.12 107.18L460.54 107.19L461.94 107.26L463.32 107.39L464.68 107.58L465.33 107.7L465.33 107.41L465.42 106.23L465.58 105.06L465.82 103.92L466.13 102.79L466.5 101.69L466.94 100.61L467.44 99.55L468.01 98.52L468.64 97.53L469.32 96.56L470.06 95.62L470.86 94.72L471.71 93.86L472.6 93.03L473.55 92.24L474.54 91.49L475.58 90.79L476.66 90.13L477.78 89.51L478.94 88.95L480.14 88.43L481.37 87.96L482.63 87.55L483.92 87.19L485.25 86.89L486.6 86.64L487.97 86.46L489.37 86.34L490.79 86.28L492.21 86.28L493.62 86.35Z" id="a1j15Kv7RO"></path><path d="" id="asLq53FOU"></path><path d="M475.2 126.21L476.48 126.45L477.71 126.79L478.88 127.23L479.98 127.78L481.01 128.43L481.96 129.18L482.81 130.03L483.57 130.97L484.22 132.02L484.4 132.41L483.98 131.73L483.23 130.78L482.37 129.93L481.42 129.18L480.39 128.53L479.29 127.99L478.12 127.54L476.89 127.2L475.61 126.97L474.29 126.85L472.94 126.83L471.57 126.93L470.18 127.14L468.78 127.46L467.39 127.9L466 128.46L464.64 129.14L463.32 129.91L462.1 130.77L460.97 131.7L459.94 132.7L459.01 133.75L458.18 134.85L457.46 135.99L456.84 137.16L456.34 138.36L455.96 139.58L455.69 140.8L455.55 142.02L455.54 143.24L455.65 144.45L455.9 145.63L456.28 146.78L456.62 147.5L456.39 147.13L455.87 146.02L455.49 144.87L455.24 143.69L455.13 142.49L455.14 141.27L455.28 140.04L455.55 138.82L455.93 137.61L456.43 136.41L457.05 135.23L457.77 134.09L458.6 132.99L459.53 131.94L460.56 130.95L461.69 130.02L462.91 129.16L464.22 128.38L465.59 127.7L466.98 127.15L468.37 126.71L469.77 126.38L471.16 126.17L472.53 126.08L473.88 126.09L475.2 126.21Z" id="a15j5hj8kp"></path><path d="M521.97 144.78L523.17 145.15L524.31 145.64L525.37 146.26L526.35 146.99L527.24 147.82L528.03 148.74L528.73 149.74L529.34 150.82L529.84 151.97L530.23 153.17L530.52 154.42L530.69 155.72L530.75 157.04L530.69 158.39L530.51 159.75L530.21 161.12L529.77 162.48L529.59 162.92L529.88 162L530.19 160.64L530.37 159.28L530.43 157.93L530.37 156.6L530.19 155.31L529.91 154.06L529.51 152.85L529.01 151.71L528.41 150.63L527.71 149.62L526.91 148.7L526.02 147.87L525.05 147.15L523.98 146.53L522.84 146.03L521.65 145.67L520.44 145.45L519.22 145.37L518.01 145.43L516.81 145.61L515.62 145.92L514.46 146.35L513.34 146.9L512.26 147.56L511.23 148.33L510.25 149.2L509.35 150.17L508.52 151.23L507.78 152.39L507.12 153.63L506.75 154.51L506.9 154.06L507.45 152.74L508.1 151.5L508.85 150.35L509.68 149.28L510.58 148.31L511.55 147.44L512.58 146.67L513.66 146.01L514.79 145.47L515.95 145.04L517.13 144.72L518.34 144.54L519.55 144.49L520.76 144.56L521.97 144.78Z" id="e4iqCOV7BX"></path></defs><g><g><g><filter id="shadow11449422" x="383.26" y="63.19" width="219" height="219" filterUnits="userSpaceOnUse" primitiveUnits="userSpaceOnUse"><feFlood></feFlood><feComposite in2="SourceAlpha" operator="in"></feComposite><feGaussianBlur stdDeviation="1"></feGaussianBlur><feOffset dx="1" dy="1" result="afterOffset"></feOffset><feFlood flood-color="#000000" flood-opacity="0.5"></feFlood><feComposite in2="afterOffset" operator="in"></feComposite><feMorphology operator="dilate" radius="1"></feMorphology><feComposite in2="SourceAlpha" operator="out"></feComposite></filter><path d="M574.35 72.19C584.24 72.19 592.26 80.21 592.26 90.1C592.26 126.52 592.26 217.86 592.26 254.28C592.26 264.17 584.24 272.19 574.35 272.19C537.94 272.19 446.59 272.19 410.17 272.19C400.28 272.19 392.26 264.17 392.26 254.28C392.26 217.86 392.26 126.52 392.26 90.1C392.26 80.21 400.28 72.19 410.17 72.19C446.59 72.19 537.94 72.19 574.35 72.19Z" id="b5Rfg0bzFP" fill="white" fill-opacity="1" filter="url(#shadow11449422)"></path></g><use xlink:href="#dtbMRmT9m" opacity="1" fill="#b6325f" fill-opacity="1"></use></g><g><g><filter id="shadow8826414" x="455.55" y="151.56" width="75.68" height="110.05" filterUnits="userSpaceOnUse" primitiveUnits="userSpaceOnUse"><feFlood></feFlood><feComposite in2="SourceAlpha" operator="in"></feComposite><feGaussianBlur stdDeviation="1"></feGaussianBlur><feOffset dx="1" dy="1" result="afterOffset"></feOffset><feFlood flood-color="#000000" flood-opacity="0.5"></feFlood><feComposite in2="afterOffset" operator="in"></feComposite><feMorphology operator="dilate" radius="1"></feMorphology><feComposite in2="SourceAlpha" operator="out"></feComposite></filter><path d="M521.23 239.95C521.23 246.39 516.01 251.61 509.57 251.61C500.57 251.61 485.21 251.61 476.21 251.61C469.77 251.61 464.55 246.39 464.55 239.95C464.55 224.07 464.55 188.1 464.55 172.22C464.55 165.78 469.77 160.56 476.21 160.56C485.21 160.56 500.57 160.56 509.57 160.56C516.01 160.56 521.23 165.78 521.23 172.22C521.23 188.1 521.23 224.07 521.23 239.95Z" id="a26Zbbzcwv" fill="white" fill-opacity="1" filter="url(#shadow8826414)"></path></g><use xlink:href="#m8T4Syx1F" opacity="1" fill="#9455e3" fill-opacity="1"></use><g><use xlink:href="#m8T4Syx1F" opacity="1" fill-opacity="0" stroke="#000000" stroke-width="2" stroke-opacity="1"></use></g></g><g><g><filter id="shadow3912857" x="418.6" y="150.24" width="89.66" height="111.37" filterUnits="userSpaceOnUse" primitiveUnits="userSpaceOnUse"><feFlood></feFlood><feComposite in2="SourceAlpha" operator="in"></feComposite><feGaussianBlur stdDeviation="1"></feGaussianBlur><feOffset dx="1" dy="1" result="afterOffset"></feOffset><feFlood flood-color="#000000" flood-opacity="0.5"></feFlood><feComposite in2="afterOffset" operator="in"></feComposite><feMorphology operator="dilate" radius="1"></feMorphology><feComposite in2="SourceAlpha" operator="out"></feComposite></filter><path d="M460.94 165.38C457.55 159.5 450.04 157.49 444.17 160.88C439.96 163.31 437.96 164.47 433.74 166.9C427.87 170.29 425.86 177.8 429.25 183.68C437.61 198.16 456.56 230.98 464.92 245.46C468.31 251.34 475.82 253.35 481.7 249.96C485.91 247.53 487.91 246.37 492.12 243.94C497.99 240.55 500.01 233.04 496.62 227.17C488.25 212.68 469.31 179.86 460.94 165.38Z" id="c76YRXOPd6" fill="white" fill-opacity="1" filter="url(#shadow3912857)"></path></g><use xlink:href="#a3OgqqGjzm" opacity="1" fill="#9455e3" fill-opacity="1"></use><g><use xlink:href="#a3OgqqGjzm" opacity="1" fill-opacity="0" stroke="#000000" stroke-width="2" stroke-opacity="1"></use></g></g><g><g><filter id="shadow12311193" x="477.25" y="150.24" width="89.66" height="111.37" filterUnits="userSpaceOnUse" primitiveUnits="userSpaceOnUse"><feFlood></feFlood><feComposite in2="SourceAlpha" operator="in"></feComposite><feGaussianBlur stdDeviation="1"></feGaussianBlur><feOffset dx="1" dy="1" result="afterOffset"></feOffset><feFlood flood-color="#000000" flood-opacity="0.5"></feFlood><feComposite in2="afterOffset" operator="in"></feComposite><feMorphology operator="dilate" radius="1"></feMorphology><feComposite in2="SourceAlpha" operator="out"></feComposite></filter><path d="M519.6 245.46C516.2 251.34 508.69 253.35 502.82 249.96C498.61 247.53 496.61 246.37 492.4 243.94C486.52 240.55 484.51 233.04 487.9 227.17C496.26 212.68 515.21 179.86 523.57 165.38C526.97 159.5 534.48 157.49 540.35 160.88C544.56 163.31 546.56 164.47 550.77 166.9C556.65 170.29 558.66 177.8 555.27 183.68C546.91 198.16 527.96 230.98 519.6 245.46Z" id="c46s01SEZ0" fill="white" fill-opacity="1" filter="url(#shadow12311193)"></path></g><use xlink:href="#adofMVDF4" opacity="1" fill="#9455e3" fill-opacity="1"></use><g><use xlink:href="#adofMVDF4" opacity="1" fill-opacity="0" stroke="#000000" stroke-width="2" stroke-opacity="1"></use></g></g><g><g><filter id="shadow11654659" x="435.13" y="150.24" width="115.26" height="111.37" filterUnits="userSpaceOnUse" primitiveUnits="userSpaceOnUse"><feFlood></feFlood><feComposite in2="SourceAlpha" operator="in"></feComposite><feGaussianBlur stdDeviation="1"></feGaussianBlur><feOffset dx="1" dy="1" result="afterOffset"></feOffset><feFlood flood-color="#000000" flood-opacity="0.5"></feFlood><feComposite in2="afterOffset" operator="in"></feComposite><feMorphology operator="dilate" radius="1"></feMorphology><feComposite in2="SourceAlpha" operator="out"></feComposite></filter><path d="M518.73 159.28L519.21 159.33L519.68 159.4L520.15 159.48L520.62 159.59L521.09 159.72L521.56 159.86L522.02 160.03L522.48 160.21L522.94 160.41L523.38 160.64L523.83 160.88L534.25 166.9L534.69 167.16L535.1 167.44L535.51 167.73L535.9 168.04L536.27 168.35L536.63 168.69L536.97 169.03L537.3 169.38L537.61 169.75L537.91 170.13L538.19 170.51L538.45 170.91L538.7 171.31L538.93 171.73L539.15 172.15L539.35 172.58L539.53 173.01L539.7 173.46L539.84 173.9L539.97 174.36L540.09 174.81L540.18 175.28L540.26 175.74L540.32 176.21L540.36 176.68L540.39 177.15L540.39 177.63L540.38 178.1L540.35 178.58L540.3 179.05L540.23 179.53L540.15 180L540.04 180.47L539.91 180.94L539.77 181.41L539.6 181.87L539.42 182.33L539.22 182.78L538.99 183.23L538.75 183.68L513.39 227.61L513.39 227.61L513.61 228.06L513.82 228.51L514 228.97L514.17 229.43L514.31 229.9L514.44 230.37L514.54 230.84L514.63 231.31L514.7 231.79L514.75 232.26L514.78 232.74L514.79 233.21L514.79 233.69L514.76 234.16L514.72 234.63L514.66 235.1L514.58 235.57L514.48 236.03L514.37 236.48L514.24 236.94L514.09 237.39L513.93 237.83L513.75 238.26L513.55 238.69L513.33 239.11L513.1 239.53L512.85 239.93L512.59 240.33L512.31 240.72L512.01 241.09L511.7 241.46L511.37 241.81L511.03 242.16L510.67 242.49L510.29 242.81L509.91 243.11L509.5 243.4L509.08 243.68L508.65 243.94L500.3 248.76L500.23 248.83L499.85 249.12L499.46 249.4L499.07 249.67L498.66 249.91L498.25 250.15L497.83 250.36L497.4 250.56L496.96 250.74L496.52 250.91L496.07 251.06L495.62 251.19L495.16 251.3L494.7 251.4L494.23 251.47L493.77 251.53L493.3 251.58L492.82 251.6L492.35 251.61L492.26 251.6L492.18 251.61L491.7 251.6L491.23 251.58L490.76 251.53L490.29 251.47L489.83 251.4L489.36 251.3L488.91 251.19L488.45 251.06L488.01 250.91L487.56 250.74L487.13 250.56L486.7 250.36L486.28 250.15L485.86 249.91L485.46 249.67L485.06 249.4L484.68 249.12L484.3 248.83L484.22 248.76L475.88 243.94L475.44 243.68L475.02 243.4L474.62 243.11L474.23 242.81L473.86 242.49L473.5 242.16L473.16 241.81L472.83 241.46L472.52 241.09L472.22 240.72L471.94 240.33L471.67 239.93L471.43 239.53L471.19 239.11L470.98 238.69L470.78 238.26L470.6 237.83L470.43 237.39L470.29 236.94L470.15 236.48L470.04 236.03L469.95 235.57L469.87 235.1L469.81 234.63L469.76 234.16L469.74 233.69L469.73 233.21L469.75 232.74L469.78 232.26L469.83 231.79L469.9 231.31L469.98 230.84L470.09 230.37L470.21 229.9L470.36 229.43L470.52 228.97L470.71 228.51L470.91 228.06L471.14 227.61L471.14 227.61L445.78 183.68L445.53 183.23L445.31 182.78L445.11 182.33L444.92 181.87L444.76 181.41L444.61 180.94L444.49 180.47L444.38 180L444.29 179.53L444.22 179.05L444.17 178.58L444.14 178.1L444.13 177.63L444.14 177.15L444.16 176.68L444.2 176.21L444.26 175.74L444.34 175.28L444.44 174.81L444.55 174.36L444.68 173.9L444.83 173.46L445 173.01L445.18 172.58L445.38 172.15L445.59 171.73L445.82 171.31L446.07 170.91L446.34 170.51L446.62 170.13L446.91 169.75L447.22 169.38L447.55 169.03L447.9 168.69L448.25 168.35L448.63 168.04L449.02 167.73L449.42 167.44L449.84 167.16L450.27 166.9L460.7 160.88L461.14 160.64L461.59 160.41L462.04 160.21L462.5 160.03L462.97 159.86L463.43 159.72L463.9 159.59L464.37 159.48L464.85 159.4L465.32 159.33L465.79 159.28L466.27 159.25L466.75 159.24L467.22 159.24L467.69 159.27L468.16 159.31L468.63 159.37L469.1 159.45L469.56 159.54L470.02 159.66L470.47 159.79L470.92 159.93L471.36 160.1L471.79 160.28L472.22 160.48L472.64 160.7L473.06 160.93L473.46 161.18L473.86 161.44L474.25 161.72L474.62 162.02L474.99 162.33L475.34 162.66L475.69 163L476.02 163.36L476.34 163.73L476.64 164.12L476.93 164.53L477.21 164.94L477.47 165.38L492.26 191L507.05 165.38L507.32 164.94L507.59 164.53L507.88 164.12L508.19 163.73L508.51 163.36L508.84 163L509.18 162.66L509.54 162.33L509.9 162.02L510.28 161.72L510.67 161.44L511.06 161.18L511.47 160.93L511.88 160.7L512.3 160.48L512.73 160.28L513.17 160.1L513.61 159.93L514.06 159.79L514.51 159.66L514.97 159.54L515.43 159.45L515.89 159.37L516.36 159.31L516.83 159.27L517.31 159.24L517.78 159.24L518.26 159.25L518.73 159.28Z" id="aB1w2xsV5" fill="white" fill-opacity="1" filter="url(#shadow11654659)"></path></g><use xlink:href="#aBDhZi0Zt" opacity="1" fill="#9455e3" fill-opacity="1"></use><g><use xlink:href="#aBDhZi0Zt" opacity="1" fill-opacity="0" stroke="#000000" stroke-width="2" stroke-opacity="1"></use></g></g><g><g><filter id="shadow11244442" x="464.96" y="148.47" width="55.6" height="114.91" filterUnits="userSpaceOnUse" primitiveUnits="userSpaceOnUse"><feFlood></feFlood><feComposite in2="SourceAlpha" operator="in"></feComposite><feGaussianBlur stdDeviation="1"></feGaussianBlur><feOffset dx="1" dy="1" result="afterOffset"></feOffset><feFlood flood-color="#000000" flood-opacity="0.5"></feFlood><feComposite in2="afterOffset" operator="in"></feComposite><feMorphology operator="dilate" radius="1"></feMorphology><feComposite in2="SourceAlpha" operator="out"></feComposite></filter><path d="M510.56 241.09C510.56 247.88 505.06 253.37 498.28 253.37C493.42 253.37 491.11 253.37 486.25 253.37C479.46 253.37 473.97 247.88 473.97 241.1C473.96 224.37 473.96 186.47 473.96 169.75C473.96 162.97 479.46 157.47 486.24 157.47C491.11 157.47 493.42 157.47 498.28 157.47C505.06 157.47 510.56 162.97 510.56 169.75C510.56 186.47 510.56 224.37 510.56 241.09Z" id="c3alJE5iWk" fill="white" fill-opacity="1" filter="url(#shadow11244442)"></path></g><use xlink:href="#c3BYsLlg9W" opacity="1" fill="#9455e3" fill-opacity="1"></use><g><use xlink:href="#c3BYsLlg9W" opacity="1" fill-opacity="0" stroke="#000000" stroke-width="2" stroke-opacity="1"></use></g></g><g><g><filter id="shadow11354878" x="408.26" y="77.28" width="169" height="120.02" filterUnits="userSpaceOnUse" primitiveUnits="userSpaceOnUse"><feFlood></feFlood><feComposite in2="SourceAlpha" operator="in"></feComposite><feGaussianBlur stdDeviation="1"></feGaussianBlur><feOffset dx="1" dy="1" result="afterOffset"></feOffset><feFlood flood-color="#000000" flood-opacity="0.5"></feFlood><feComposite in2="afterOffset" operator="in"></feComposite><feMorphology operator="dilate" radius="1"></feMorphology><feComposite in2="SourceAlpha" operator="out"></feComposite></filter><path d="M493.62 86.35L495 86.48L496.36 86.67L497.69 86.92L499 87.23L500.28 87.59L501.53 88.01L502.74 88.48L503.92 89L505.07 89.57L506.17 90.19L507.24 90.85L508.26 91.56L509.24 92.31L510.16 93.1L511.05 93.93L511.88 94.8L512.65 95.71L513.37 96.65L514.04 97.62L514.65 98.62L515.19 99.66L515.67 100.72L516.09 101.81L516.44 102.92L516.72 104.06L516.93 105.21L517.07 106.39L517.13 107.59L517.12 108.79L517.07 109.39L517.13 109.38L518.45 109.07L519.8 108.83L521.18 108.64L522.58 108.52L524 108.46L525.42 108.46L526.82 108.53L528.2 108.66L529.56 108.85L530.89 109.1L532.2 109.41L533.48 109.78L534.73 110.19L535.95 110.66L537.13 111.18L538.27 111.75L539.37 112.37L540.44 113.04L541.46 113.74L542.44 114.49L543.37 115.29L544.25 116.12L545.08 116.99L545.85 117.89L546.58 118.83L547.24 119.8L547.85 120.81L548.39 121.84L548.87 122.9L549.29 123.99L549.64 125.11L549.92 126.24L550.13 127.4L550.27 128.58L550.33 129.77L550.32 130.97L550.23 132.15L550.06 133.32L549.83 134.46L549.52 135.59L549.15 136.69L548.71 137.77L548.2 138.83L548.11 138.99L549.13 139.23L550.41 139.59L551.66 140.01L552.88 140.48L554.06 141L555.2 141.57L556.31 142.19L557.37 142.85L558.39 143.56L559.37 144.31L560.3 145.1L561.18 145.93L562.01 146.8L562.79 147.71L563.51 148.65L564.17 149.62L564.78 150.62L565.32 151.66L565.81 152.72L566.22 153.81L566.57 154.92L566.85 156.06L567.06 157.21L567.2 158.39L567.26 159.59L567.25 160.78L567.16 161.97L566.99 163.13L566.76 164.28L566.45 165.4L566.08 166.51L565.64 167.59L565.13 168.64L564.57 169.67L563.94 170.67L563.26 171.63L562.51 172.57L561.72 173.47L560.87 174.34L559.97 175.16L559.03 175.95L558.03 176.7L557 177.4L555.92 178.06L554.8 178.68L553.64 179.25L552.44 179.76L551.21 180.23L549.95 180.64L548.65 181L547.33 181.3L545.98 181.55L544.6 181.73L543.2 181.86L541.78 181.92L540.36 181.91L538.96 181.84L537.58 181.71L536.22 181.52L534.88 181.27L533.58 180.96L532.3 180.6L531.05 180.18L529.83 179.71L528.73 179.23L528.25 179.71L527.35 180.54L526.4 181.33L525.41 182.08L524.37 182.78L523.29 183.44L522.17 184.06L521.01 184.62L519.82 185.14L518.59 185.61L517.32 186.02L516.03 186.38L514.71 186.68L513.36 186.93L511.98 187.11L510.58 187.23L509.16 187.29L507.74 187.29L506.34 187.22L504.96 187.09L503.6 186.9L502.26 186.65L500.95 186.34L499.67 185.98L498.43 185.56L497.21 185.09L496.03 184.57L494.89 184L493.78 183.38L492.72 182.72L491.7 182.01L490.72 181.26L490.13 180.76L489.94 180.9L488.9 181.61L487.82 182.27L486.7 182.89L485.54 183.45L484.34 183.97L483.11 184.44L481.85 184.85L480.55 185.21L479.23 185.51L477.88 185.75L476.5 185.94L475.11 186.06L473.69 186.12L472.26 186.12L470.86 186.05L469.48 185.92L468.12 185.73L466.79 185.48L465.48 185.17L464.2 184.81L462.95 184.39L461.74 183.92L460.55 183.4L459.41 182.83L458.31 182.21L457.24 181.55L456.22 180.84L455.24 180.09L454.31 179.3L453.43 178.47L452.6 177.6L451.91 176.79L451.76 176.84L450.47 177.19L449.14 177.5L447.79 177.74L446.42 177.93L445.02 178.05L443.6 178.11L442.18 178.1L440.78 178.04L439.39 177.91L438.03 177.71L436.7 177.46L435.39 177.16L434.11 176.79L432.86 176.38L431.65 175.91L430.47 175.39L429.32 174.81L428.22 174.2L427.16 173.53L426.13 172.83L425.16 172.07L424.23 171.28L423.35 170.45L422.52 169.58L421.74 168.68L421.02 167.74L420.35 166.76L419.75 165.76L419.2 164.73L418.72 163.67L418.3 162.58L417.95 161.46L417.67 160.33L417.46 159.17L417.32 157.99L417.26 156.8L417.28 155.6L417.37 154.42L417.53 153.25L417.77 152.11L418.08 150.98L418.45 149.88L418.89 148.8L419.39 147.74L419.96 146.72L420.59 145.72L421.27 144.75L422.01 143.81L422.81 142.91L423.65 142.05L424.55 141.22L425.5 140.43L426.49 139.68L427.53 138.98L428.61 138.32L429.73 137.7L430.89 137.14L432.08 136.62L433.31 136.15L434.58 135.74L434.83 135.67L434.68 135.29L434.33 134.18L434.05 133.05L433.84 131.89L433.7 130.71L433.64 129.52L433.65 128.32L433.75 127.14L433.91 125.97L434.15 124.82L434.45 123.7L434.83 122.59L435.27 121.52L435.77 120.46L436.34 119.43L436.96 118.44L437.65 117.47L438.39 116.53L439.18 115.63L440.03 114.77L440.93 113.94L441.87 113.15L442.87 112.4L443.9 111.7L444.98 111.04L446.11 110.42L447.26 109.86L448.46 109.34L449.69 108.87L450.96 108.46L452.25 108.1L453.57 107.8L454.92 107.55L456.3 107.37L457.7 107.25L459.12 107.18L460.54 107.19L461.94 107.26L463.32 107.39L464.68 107.58L465.33 107.7L465.33 107.41L465.42 106.23L465.58 105.06L465.82 103.92L466.13 102.79L466.5 101.69L466.94 100.61L467.44 99.55L468.01 98.52L468.64 97.53L469.32 96.56L470.06 95.62L470.86 94.72L471.71 93.86L472.6 93.03L473.55 92.24L474.54 91.49L475.58 90.79L476.66 90.13L477.78 89.51L478.94 88.95L480.14 88.43L481.37 87.96L482.63 87.55L483.92 87.19L485.25 86.89L486.6 86.64L487.97 86.46L489.37 86.34L490.79 86.28L492.21 86.28L493.62 86.35Z" id="bp5H5Mer" fill="white" fill-opacity="1" filter="url(#shadow11354878)"></path></g><use xlink:href="#a1j15Kv7RO" opacity="1" fill="#e9b4fb" fill-opacity="1"></use><g><use xlink:href="#a1j15Kv7RO" opacity="1" fill-opacity="0" stroke="#d879f8" stroke-width="2" stroke-opacity="1"></use></g></g><g><g><use xlink:href="#asLq53FOU" opacity="1" fill-opacity="0" stroke="#d879f8" stroke-width="2" stroke-opacity="1"></use></g></g><g><g><filter id="shadow474116" x="446.13" y="117.08" width="48.28" height="40.42" filterUnits="userSpaceOnUse" primitiveUnits="userSpaceOnUse"><feFlood></feFlood><feComposite in2="SourceAlpha" operator="in"></feComposite><feGaussianBlur stdDeviation="1"></feGaussianBlur><feOffset dx="1" dy="1" result="afterOffset"></feOffset><feFlood flood-color="#000000" flood-opacity="0.5"></feFlood><feComposite in2="afterOffset" operator="in"></feComposite><feMorphology operator="dilate" radius="1"></feMorphology><feComposite in2="SourceAlpha" operator="out"></feComposite></filter><path d="M475.2 126.21L476.48 126.45L477.71 126.79L478.88 127.23L479.98 127.78L481.01 128.43L481.96 129.18L482.81 130.03L483.57 130.97L484.22 132.02L484.4 132.41L483.98 131.73L483.23 130.78L482.37 129.93L481.42 129.18L480.39 128.53L479.29 127.99L478.12 127.54L476.89 127.2L475.61 126.97L474.29 126.85L472.94 126.83L471.57 126.93L470.18 127.14L468.78 127.46L467.39 127.9L466 128.46L464.64 129.14L463.32 129.91L462.1 130.77L460.97 131.7L459.94 132.7L459.01 133.75L458.18 134.85L457.46 135.99L456.84 137.16L456.34 138.36L455.96 139.58L455.69 140.8L455.55 142.02L455.54 143.24L455.65 144.45L455.9 145.63L456.28 146.78L456.62 147.5L456.39 147.13L455.87 146.02L455.49 144.87L455.24 143.69L455.13 142.49L455.14 141.27L455.28 140.04L455.55 138.82L455.93 137.61L456.43 136.41L457.05 135.23L457.77 134.09L458.6 132.99L459.53 131.94L460.56 130.95L461.69 130.02L462.91 129.16L464.22 128.38L465.59 127.7L466.98 127.15L468.37 126.71L469.77 126.38L471.16 126.17L472.53 126.08L473.88 126.09L475.2 126.21Z" id="b1cSVeJna" fill="white" fill-opacity="1" filter="url(#shadow474116)"></path></g><use xlink:href="#a15j5hj8kp" opacity="1" fill="#e6fec7" fill-opacity="1"></use><g><use xlink:href="#a15j5hj8kp" opacity="1" fill-opacity="0" stroke="#d879f8" stroke-width="2" stroke-opacity="1"></use></g></g><g><g><filter id="shadow6226688" x="497.75" y="135.49" width="43" height="37.43" filterUnits="userSpaceOnUse" primitiveUnits="userSpaceOnUse"><feFlood></feFlood><feComposite in2="SourceAlpha" operator="in"></feComposite><feGaussianBlur stdDeviation="1"></feGaussianBlur><feOffset dx="1" dy="1" result="afterOffset"></feOffset><feFlood flood-color="#000000" flood-opacity="0.5"></feFlood><feComposite in2="afterOffset" operator="in"></feComposite><feMorphology operator="dilate" radius="1"></feMorphology><feComposite in2="SourceAlpha" operator="out"></feComposite></filter><path d="M521.97 144.78L523.17 145.15L524.31 145.64L525.37 146.26L526.35 146.99L527.24 147.82L528.03 148.74L528.73 149.74L529.34 150.82L529.84 151.97L530.23 153.17L530.52 154.42L530.69 155.72L530.75 157.04L530.69 158.39L530.51 159.75L530.21 161.12L529.77 162.48L529.59 162.92L529.88 162L530.19 160.64L530.37 159.28L530.43 157.93L530.37 156.6L530.19 155.31L529.91 154.06L529.51 152.85L529.01 151.71L528.41 150.63L527.71 149.62L526.91 148.7L526.02 147.87L525.05 147.15L523.98 146.53L522.84 146.03L521.65 145.67L520.44 145.45L519.22 145.37L518.01 145.43L516.81 145.61L515.62 145.92L514.46 146.35L513.34 146.9L512.26 147.56L511.23 148.33L510.25 149.2L509.35 150.17L508.52 151.23L507.78 152.39L507.12 153.63L506.75 154.51L506.9 154.06L507.45 152.74L508.1 151.5L508.85 150.35L509.68 149.28L510.58 148.31L511.55 147.44L512.58 146.67L513.66 146.01L514.79 145.47L515.95 145.04L517.13 144.72L518.34 144.54L519.55 144.49L520.76 144.56L521.97 144.78Z" id="haJznRHsL" fill="white" fill-opacity="1" filter="url(#shadow6226688)"></path></g><use xlink:href="#e4iqCOV7BX" opacity="1" fill="#e6fec7" fill-opacity="1"></use><g><use xlink:href="#e4iqCOV7BX" opacity="1" fill-opacity="0" stroke="#d879f8" stroke-width="2" stroke-opacity="1"></use></g></g></g></svg>